<!--?xml version="1.0" encoding="utf-8"?-->
<!-- Generator: Adobe Illustrator 18.1.1, SVG Export Plug-In . SVG Version: 6.00 Build 0)  -->

<svg version="1.1" id="_x31_0" xmlns="http://www.w3.org/2000/svg" xmlns:xlink="http://www.w3.org/1999/xlink" x="0px" y="0px" viewBox="0 0 512 512" style="width: 256px; height: 256px; opacity: 1;" xml:space="preserve">
<style type="text/css">
	.st0{fill:#374149;}
</style>
<g>
	<path class="st0" d="M444.894,160.754h-33.718C406.84,71.313,338.894,0,256,0c-82.898,0-150.844,71.313-155.176,160.754H67.102
		c-23.562,0-42.664,19.106-42.664,42.668v265.91c0,23.566,19.102,42.668,42.664,42.668h377.793
		c23.566,0,42.668-19.102,42.668-42.668v-265.91C487.562,179.859,468.461,160.754,444.894,160.754z M444.894,469.332H67.102v-265.91
		h76.172v-33.586c0-70.121,50.57-127.168,112.726-127.168s112.726,57.047,112.726,127.168v33.586h76.168V469.332z" style="fill: rgb(0, 0, 0);"></path>
	<path class="st0" d="M256,93.019c-34.394,0-62.375,34.458-62.375,76.817v33.324l-0.004,0.102h0.004v0.16h124.75v-33.586
		C318.375,127.477,290.394,93.019,256,93.019z" style="fill: rgb(0, 0, 0);"></path>
	<path class="st0" d="M256,264.934c-22.262,0-40.305,18.047-40.305,40.305c0,15.687,8.981,29.25,22.066,35.91
		c-1.195,2.57-1.914,5.41-1.914,8.422v51.05c0,11.082,9.066,20.157,20.152,20.157c11.082,0,20.153-9.074,20.153-20.157v-51.05
		c0-3.012-0.719-5.852-1.918-8.422c13.086-6.661,22.07-20.223,22.07-35.91C296.305,282.981,278.258,264.934,256,264.934z" style="fill: rgb(0, 0, 0);"></path>
</g>
</svg>
