<!--?xml version="1.0" encoding="utf-8"?-->
<!-- Generator: Adobe Illustrator 18.1.1, SVG Export Plug-In . SVG Version: 6.00 Build 0)  -->

<svg version="1.1" id="_x31_0" xmlns="http://www.w3.org/2000/svg" xmlns:xlink="http://www.w3.org/1999/xlink" x="0px" y="0px" viewBox="0 0 512 512" style="width: 128px; height: 128px; opacity: 1;" xml:space="preserve">
<style type="text/css">
	.st0{fill:#374149;}
</style>
<g>
	<path class="st0" d="M192.226,74.203c0.016-0.004,0.032-0.012,0.047-0.016c0.008,0.055,0.004,0.11,0.012,0.164
		c9.527-3.758,19.394-6.64,29.523-8.59c-0.066-0.469-0.066-0.875-0.066-1.34c0-18.859,15.367-34.226,34.222-34.226
		c18.926,0,34.223,15.367,34.223,34.226c0,0.465,0,1.004-0.066,1.473c10.066,2.016,19.93,4.969,29.39,8.859
		c0.606-3.355,0.875-6.843,0.875-10.332c0-35.5-28.856-64.422-64.422-64.422c-35.496,0-64.418,28.922-64.418,64.422
		c0,2.547,0.281,5.051,0.558,7.543C192.164,72.711,192.164,73.465,192.226,74.203z" style="fill: rgb(0, 0, 0);"></path>
	<path class="st0" d="M195.91,441.141l-23.262-0.027c0,0.007,0.004,0.015,0.004,0.027h-0.164
		C179.066,481.402,213.96,512,255.964,512c25.559,0,48.398-11.336,63.898-29.226c0.391-0.45,0.817-0.867,1.196-1.328
		c0.851-1.02,1.621-2.106,2.422-3.164c0.687-0.91,1.406-1.79,2.058-2.731c0.551-0.797,1.035-1.64,1.558-2.457
		c0.809-1.254,1.637-2.492,2.379-3.793c0.398-0.699,0.73-1.438,1.11-2.149c0.781-1.461,1.57-2.914,2.266-4.426
		c0.324-0.699,0.578-1.434,0.878-2.141c0.672-1.574,1.356-3.144,1.934-4.769c0.192-0.535,0.325-1.094,0.508-1.637
		c1.387-4.157,2.523-8.438,3.27-12.879h-0.031c0.008-0.054,0.023-0.11,0.031-0.16H195.91z" style="fill: rgb(0, 0, 0);"></path>
	<path class="st0" d="M457.476,354.778c-28.25-19.594-46.77-52.274-46.77-89.317V240.77c0-65.496-40.398-123.203-97.57-146.754
		c-9.527-4.028-19.523-7.051-29.926-8.926c-8.859-1.679-17.985-2.55-27.313-2.55h-2.886c-8.32,0.133-16.438,0.938-24.355,2.414
		c-10.402,1.813-20.469,4.766-30.063,8.59c-18.086,7.234-34.472,17.801-48.445,30.91c-0.938,0.875-1.805,1.817-2.719,2.715
		c-1.722,1.699-3.465,3.382-5.105,5.16c-1.329,1.434-2.563,2.942-3.832,4.422c-1.176,1.374-2.391,2.71-3.52,4.125
		c-1.203,1.511-2.313,3.086-3.457,4.637c-1.118,1.515-2.274,3.004-3.34,4.558c-0.824,1.211-1.57,2.473-2.359,3.707
		c-1.305,2.023-2.618,4.035-3.828,6.125c-0.317,0.55-0.594,1.125-0.902,1.68c-12.606,22.386-19.86,48.183-19.86,75.695v28.183
		c0,37.043-18.519,69.722-46.769,89.317c-7.786,5.5-12.282,14.558-12.282,24.086c0,8.191,3.289,15.637,8.722,21.008
		c5.301,5.434,12.75,8.722,21.004,8.722h368.195c16.442,0,29.727-13.285,29.727-29.73
		C469.824,369.336,465.328,360.278,457.476,354.778z M193.828,170.11c10.402-9.328,23.082-14.16,34.559-14.16
		c9.73,0,18.586,3.355,24.828,10.199c13.621,15.098,9.195,41.402-9.863,58.648c-10.402,9.461-22.95,14.226-34.559,14.226
		c-9.598,0-18.453-3.355-24.695-10.199C170.344,213.726,174.769,187.422,193.828,170.11z" style="fill: rgb(0, 0, 0);"></path>
</g>
</svg>
