<!--?xml version="1.0" encoding="utf-8"?-->
<!-- Generator: Adobe Illustrator 24.1.1, SVG Export Plug-In . SVG Version: 6.00 Build 0)  -->
<svg version="1.1" id="_x31_0" xmlns="http://www.w3.org/2000/svg" xmlns:xlink="http://www.w3.org/1999/xlink" x="0px" y="0px" viewBox="0 0 512 512" style="width: 256px; height: 256px; opacity: 1;" xml:space="preserve">
<style type="text/css">
	.st0{fill:#374149;}
</style>
<g>
	<path class="st0" d="M33.695,482.166h444.611c25.9,0,42.085-28.037,29.136-50.467L285.135,46.656
		c-12.948-22.43-45.321-22.43-58.273,0L4.559,431.699C-8.394,454.129,7.795,482.166,33.695,482.166z M232.82,384.268
		c0-3.594,2.909-6.503,6.498-6.503h33.365c3.59,0,6.499,2.91,6.499,6.503v33.045c0,3.59-2.91,6.503-6.499,6.503h-33.365
		c-3.59,0-6.498-2.914-6.498-6.503V384.268z M227.885,189.229c-0.354-5.123,3.932-9.462,9.343-9.462h37.546
		c5.419,0,9.708,4.351,9.343,9.482l-11.122,156.314h-34.322L227.885,189.229z" style="fill: rgb(0, 0, 0);"></path>
</g>
</svg>
