<!--?xml version="1.0" encoding="utf-8"?-->
<!-- Generator: Adobe Illustrator 18.1.1, SVG Export Plug-In . SVG Version: 6.00 Build 0)  -->

<svg version="1.1" id="_x31_0" xmlns="http://www.w3.org/2000/svg" xmlns:xlink="http://www.w3.org/1999/xlink" x="0px" y="0px" viewBox="0 0 512 512" style="width: 256px; height: 256px; opacity: 1;" xml:space="preserve">
<style type="text/css">
	.st0{fill:#374149;}
</style>
<g>
	<rect y="171.23" class="st0" width="27.633" height="75.566" style="fill: rgb(0, 0, 0);"></rect>
	<path class="st0" d="M35.16,115.211c5.871-9.395,14.574-16.098,24.454-18.86l13.398-3.73l-6.36-28.324l-0.32-1.438l0,0
		l-0.019-0.078l-13.402,3.73c-16.367,4.559-30.734,15.61-40.477,31.153l-7.875,12.574l22.726,17.542L35.16,115.211z" style="fill: rgb(0, 0, 0);"></path>
	<path class="st0" d="M362.504,110.238l22.379-18.375l-1.242-1.59c-11.328-14.09-26.801-23.137-43.52-25.489l-13.332-1.808
		l-0.332-0.047l0,0l-0.078-0.008l-3.387,30.527l13.746,1.867C346.617,96.699,355.801,101.945,362.504,110.238z" style="fill: rgb(0, 0, 0);"></path>
	<rect x="217.102" y="64.23" class="st0" width="67.898" height="30.742" style="fill: rgb(0, 0, 0);"></rect>
	<polygon class="st0" points="109.484,94.89 109.484,94.973 177.453,94.973 177.453,64.23 109.484,64.23 109.484,94.703 
		109.484,94.89 	" style="fill: rgb(0, 0, 0);"></polygon>
	<rect x="223.871" y="431.984" class="st0" width="67.898" height="30.738" style="fill: rgb(0, 0, 0);"></rect>
	<polygon class="st0" points="116.254,431.984 116.254,462.453 116.254,462.641 116.254,462.641 116.254,462.722 184.222,462.722 
		184.222,431.984 	" style="fill: rgb(0, 0, 0);"></polygon>
	<rect y="287.687" class="st0" width="27.633" height="75.566" style="fill: rgb(0, 0, 0);"></rect>
	<path class="st0" d="M38.34,416.234l-8.29-10.402l-0.843-1.074l-0.008,0.004l-0.047-0.062L8.496,425.145l9.187,11.468
		c11.329,14.157,26.801,23.207,43.516,25.489l13.68,1.934l3.453-30.531l-13.746-1.867C54.5,430.258,45.176,424.801,38.34,416.234z" style="fill: rgb(0, 0, 0);"></path>
	<polygon class="st0" points="373.691,280.16 373.691,355.187 373.691,355.648 373.691,355.648 373.691,355.726 401.324,355.726 
		401.324,280.16 	" style="fill: rgb(0, 0, 0);"></polygon>
	<path class="st0" d="M374.106,399.148l-0.004,0.004l-0.062-0.046l-7.875,12.64c-5.871,9.395-14.574,16.094-24.453,18.856
		l-13.398,3.73l6.699,29.774l13.398-3.73c16.371-4.563,30.738-15.614,40.41-31.086l7.946-12.641l-20.641-15.934L374.106,399.148z" style="fill: rgb(0, 0, 0);"></path>
	<polygon class="st0" points="227.554,364.465 512,80.914 495.629,52.558 492.988,47.957 492.977,47.965 492.938,47.894 
		227.484,265.687 151.332,190.832 96.422,242.285 90.149,248.152 90.156,248.156 90.098,248.211 	" style="fill: rgb(0, 0, 0);"></polygon>
</g>
</svg>
