<!--?xml version="1.0" encoding="utf-8"?-->
<!-- Generator: Adobe Illustrator 18.1.1, SVG Export Plug-In . SVG Version: 6.00 Build 0)  -->

<svg version="1.1" id="_x31_0" xmlns="http://www.w3.org/2000/svg" xmlns:xlink="http://www.w3.org/1999/xlink" x="0px" y="0px" viewBox="0 0 512 512" style="width: 128px; height: 128px; opacity: 1;" xml:space="preserve">
<style type="text/css">
	.st0{fill:#374149;}
</style>
<g>
	<path class="st0" d="M291.898,390.522h-74.851c-71.661,0-129.891-58.293-129.891-129.89V132.424
		c0-12.614,1.902-24.789,5.297-36.328c0.391-1.266,0.703-2.559,1.141-3.809h-0.046c0.015-0.054,0.027-0.11,0.046-0.164h-5.25
		C39.61,92.123,0,131.799,0,180.534v150.445c0,43.734,39.301,67.211,73.66,79.157l-1.871,59.629
		c0.062,5.874,3.559,11.121,8.996,13.434c1.871,0.808,3.871,1.25,5.871,1.25c3.626,0,7.25-1.375,10.059-3.938l101.902-61.125
		h112.836c2.192,0,4.317-0.242,6.465-0.402c1.508-0.07,2.977-0.094,4.485-0.164l-0.114-0.106c0.074-0.011,0.149-0.004,0.223-0.015
		L291.898,390.522z" style="fill: rgb(0, 0, 0);"></path>
	<path class="st0" d="M407.121,27.553H217.019c-57.832,0-104.878,47.05-104.878,104.883v128.206
		c0,57.832,47.046,104.879,104.878,104.879h84.626l75.98,69.793c7.942,7.301,18.184,11.129,28.57,11.129
		c5.656,0,11.352-1.137,16.746-3.469c15.297-6.613,25.27-21.602,25.461-38.266l0.554-47.894
		C486.027,340.627,512,303.611,512,260.642V132.436C512,74.603,464.953,27.553,407.121,27.553z M406.078,404.127l-87.985-80.824
		H217.019c-34.605,0-62.66-28.055-62.66-62.661V132.436c0-34.606,28.055-62.661,62.66-62.661h190.102
		c34.606,0,62.657,28.055,62.657,62.661v128.206c0,34.606-28.051,62.661-62.657,62.661l-0.558,48.488L406.078,404.127z" style="fill: rgb(0, 0, 0);"></path>
	<path class="st0" d="M385.535,131.619h-146.93c-5.286,0-9.57,4.282-9.57,9.566c0,5.289,4.285,9.57,9.57,9.57h146.93
		c5.285,0,9.57-4.282,9.57-9.57C395.106,135.901,390.82,131.619,385.535,131.619z" style="fill: rgb(0, 0, 0);"></path>
	<path class="st0" d="M385.535,181.846h-146.93c-5.286,0-9.57,4.286-9.57,9.57c0,5.286,4.285,9.57,9.57,9.57h146.93
		c5.285,0,9.57-4.285,9.57-9.57C395.106,186.131,390.82,181.846,385.535,181.846z" style="fill: rgb(0, 0, 0);"></path>
	<path class="st0" d="M318.422,232.072h-79.816c-5.286,0-9.57,4.286-9.57,9.57c0,5.286,4.285,9.57,9.57,9.57h79.816
		c5.286,0,9.57-4.285,9.57-9.57C327.992,236.358,323.707,232.072,318.422,232.072z" style="fill: rgb(0, 0, 0);"></path>
</g>
</svg>
