<!--?xml version="1.0" encoding="utf-8"?-->
<!-- Generator: Adobe Illustrator 18.1.1, SVG Export Plug-In . SVG Version: 6.00 Build 0)  -->

<svg version="1.1" id="_x31_0" xmlns="http://www.w3.org/2000/svg" xmlns:xlink="http://www.w3.org/1999/xlink" x="0px" y="0px" viewBox="0 0 512 512" style="width: 128px; height: 128px; opacity: 1;" xml:space="preserve">
<style type="text/css">
	.st0{fill:#374149;}
</style>
<g>
	<path class="st0" d="M504.464,81.665l-23.742,5.313l-7.215,1.625l-282.921,63.515L0.098,194.774l0.114,0.082L0,194.904
		l101.703,75.394l38.687,160.195l103.117-57.926l62.336,47.629l7.687,5.898l0.012-0.015l0.129,0.098L511.128,90.821
		C513.87,86.165,509.734,80.485,504.464,81.665z M305.519,384.297l-82.774-63.168l-27.918-21.37l256.827-163.695L321.601,357.012
		L305.519,384.297z M225.769,350.18l-38.015,21.32l-29.817,16.582l27.93-68.492l28.801,22.023L225.769,350.18z M150.242,350.567
		l-20.461-84.445l235.164-99.934l-133.984,85.378l-54.141,34.422l-0.023,0.062l-0.122-0.125l-14.5,35.64L150.242,350.567z
		 M66.687,209.02l303.918-68.293L118.82,247.735l-31.762-23.507L66.687,209.02z" style="fill: rgb(0, 0, 0);"></path>
</g>
</svg>
