<!--?xml version="1.0" encoding="utf-8"?-->
<!-- Generator: Adobe Illustrator 18.1.1, SVG Export Plug-In . SVG Version: 6.00 Build 0)  -->

<svg version="1.1" id="_x31_0" xmlns="http://www.w3.org/2000/svg" xmlns:xlink="http://www.w3.org/1999/xlink" x="0px" y="0px" viewBox="0 0 512 512" style="width: 256px; height: 256px; opacity: 1;" xml:space="preserve">
<style type="text/css">
	.st0{fill:#374149;}
</style>
<g>
	<polygon class="st0" points="233.477,379.155 233.477,255.834 233.582,175.612 233.477,175.701 233.477,175.49 128.074,266.303 
		128.074,378.651 128.07,378.994 128.074,378.994 128.074,379.155 	" style="fill: rgb(0, 0, 0);"></polygon>
	<polygon class="st0" points="350.234,379.155 350.234,264.85 293.543,211.861 254.977,175.662 254.977,175.811 254.817,175.662 
		254.817,378.373 254.813,378.994 254.817,378.994 254.817,379.155 	" style="fill: rgb(0, 0, 0);"></polygon>
	<polygon class="st0" points="371.57,263.143 371.57,379.155 477.32,379.155 477.32,245.51 477.438,146.92 477.32,147.053 
		477.32,146.815 	" style="fill: rgb(0, 0, 0);"></polygon>
	<path class="st0" d="M128.102,216.487c19.11,0,34.645-15.535,34.645-34.645c0-5.566-1.305-10.793-3.711-15.465l66.054-56.848
		c5.637,3.918,12.375,6.188,19.73,6.188c6.664,0,12.922-1.926,18.215-5.227l67.707,63.309c-2.75,4.95-4.262,10.586-4.262,16.566
		c0,19.11,15.535,34.645,34.64,34.645c19.11,0,34.645-15.535,34.645-34.645c0-7.078-2.129-13.75-5.844-19.246l70.114-77.055
		c5.086,3.023,11,4.676,17.254,4.676c19.11,0,34.711-15.539,34.711-34.645c0-19.109-15.602-34.714-34.711-34.714
		c-19.109,0-34.644,15.606-34.644,34.714c0,6.598,1.855,12.786,5.086,18.008l-70.523,77.606c-4.813-2.543-10.242-3.988-16.086-3.988
		c-6.941,0-13.402,2.062-18.832,5.57l-67.363-63.035c2.887-5.086,4.606-10.996,4.606-17.254c0-19.106-15.606-34.641-34.711-34.641
		c-19.109,0-34.644,15.535-34.644,34.641c0,5.637,1.305,10.934,3.781,15.606l-65.988,56.778c-5.637-3.918-12.512-6.254-19.867-6.254
		c-19.11,0-34.711,15.602-34.711,34.711S108.992,216.487,128.102,216.487z" style="fill: rgb(0, 0, 0);"></path>
	<polygon class="st0" points="72.211,436.885 72.211,2.904 27.012,2.904 27.012,41.724 27.012,436.885 27.012,481.651 
		27.008,481.928 27.012,481.928 27.012,482.084 64.211,482.084 80.625,482.084 80.789,482.084 506.191,482.084 506.191,436.885 	" style="fill: rgb(0, 0, 0);"></polygon>
	<polygon class="st0" points="446.953,482.139 446.953,482.139 446.953,482.139 446.789,482.139 446.793,509.092 467.371,509.096 
		467.367,482.143 	" style="fill: rgb(0, 0, 0);"></polygon>
	<polygon class="st0" points="80.625,482.084 80.629,509.037 101.207,509.041 101.203,482.33 101.203,482.248 101.203,482.248 
		101.203,482.088 80.789,482.084 80.789,482.084 80.789,482.084 	" style="fill: rgb(0, 0, 0);"></polygon>
	<polygon class="st0" points="223.258,482.268 223.258,482.268 223.258,482.108 202.844,482.104 202.844,482.104 202.844,482.104 
		202.68,482.104 202.683,509.056 223.262,509.06 223.258,482.428 	" style="fill: rgb(0, 0, 0);"></polygon>
	<polygon class="st0" points="345.313,482.288 345.313,482.288 345.313,482.123 324.898,482.123 324.898,482.123 324.898,482.123 
		324.734,482.123 324.738,509.072 345.317,509.076 345.313,482.365 	" style="fill: rgb(0, 0, 0);"></polygon>
	<polygon class="st0" points="0.004,407.892 0,428.471 26.953,428.467 26.957,408.053 26.957,408.049 26.957,408.049 
		26.957,407.888 	" style="fill: rgb(0, 0, 0);"></polygon>
	<polygon class="st0" points="0.054,62.307 27.008,62.303 27.012,41.724 0.058,41.728 	" style="fill: rgb(0, 0, 0);"></polygon>
	<polygon class="st0" points="0.039,184.361 26.988,184.357 26.992,163.78 0.039,163.784 	" style="fill: rgb(0, 0, 0);"></polygon>
	<polygon class="st0" points="0.023,285.838 0.019,306.416 26.973,306.412 26.977,285.998 26.977,285.994 26.977,285.994 
		26.977,285.834 	" style="fill: rgb(0, 0, 0);"></polygon>
</g>
</svg>
