<!--?xml version="1.0" encoding="utf-8"?-->
<!-- Generator: Adobe Illustrator 18.0.0, SVG Export Plug-In . SVG Version: 6.00 Build 0)  -->

<svg version="1.1" id="_x31_0" xmlns="http://www.w3.org/2000/svg" xmlns:xlink="http://www.w3.org/1999/xlink" x="0px" y="0px" viewBox="0 0 512 512" style="width: 128px; height: 128px; opacity: 1;" xml:space="preserve">
<style type="text/css">
	.st0{fill:#374149;}
</style>
<g>
	<path class="st0" d="M509.202,193.676c-7.626-23.457-29.321-39.215-53.981-39.215h-110.95l-34.29-105.52
		c-7.625-23.461-29.316-39.222-53.988-39.222c-24.665,0-46.356,15.762-53.981,39.222l-34.282,105.52H56.782
		c-24.668,0-46.363,15.762-53.981,39.223c-7.625,23.461,0.668,48.965,20.618,63.457l89.762,65.215L78.903,427.868
		c-5.703,17.516-2.833,36.012,7.874,50.742c10.766,14.825,28.031,23.672,46.18,23.672c11.914,0,23.43-3.785,33.282-10.945
		l89.754-65.219l89.77,65.223c9.859,7.16,21.367,10.941,33.282,10.941c18.148,0,35.406-8.847,46.172-23.668
		c10.707-14.73,13.578-33.222,7.882-50.738L398.814,322.36l89.77-65.219C508.541,242.64,516.818,217.136,509.202,193.676z
		 M333.025,336.059l26.977,83.047l-70.645-51.332c-9.762-7.09-21.293-10.836-33.356-10.836c-12.07,0-23.602,3.746-33.371,10.84
		l-70.629,51.32l26.977-83.05c7.609-23.45-0.668-48.946-20.618-63.45l-70.645-51.329h87.317c24.653,0,46.348-15.754,53.989-39.222
		l26.98-83.043l26.981,83.035c7.618,23.465,29.309,39.23,53.981,39.23h87.325l-70.638,51.325
		C333.693,287.086,325.396,312.59,333.025,336.059z" style="fill: rgb(0, 0, 0);"></path>
</g>
</svg>
