<!--?xml version="1.0" encoding="utf-8"?-->
<!-- Generator: Adobe Illustrator 18.0.0, SVG Export Plug-In . SVG Version: 6.00 Build 0)  -->

<svg version="1.1" id="_x31_0" xmlns="http://www.w3.org/2000/svg" xmlns:xlink="http://www.w3.org/1999/xlink" x="0px" y="0px" viewBox="0 0 512 512" style="width: 256px; height: 256px; opacity: 1;" xml:space="preserve">
<style type="text/css">
	.st0{fill:#374149;}
</style>
<g>
	<path class="st0" d="M192.725,364.666c-7.09-5.348-15.734-13.031-24.336-21.622c-8.605-8.602-16.293-17.242-21.64-24.316
		c-1.153-1.519-2.676-3.602-4.168-5.957c-0.137-0.242-0.289-0.446-0.422-0.695c-0.007,0.007-0.015,0.015-0.023,0.023
		c-0.027-0.047-0.058-0.086-0.09-0.137c-35.672,35.09-74.332,57.16-103.882,70.121c-4.61,42.602-18.504,84.101-27.461,107.453
		c-2.676-0.238-5.558,0.754-7.758,2.949c-3.371,3.371-3.778,8.316-1.332,11.68c0.195,0.281,0.278,0.625,0.511,0.878l0.024-0.027
		c0.043,0.043,0.05,0.098,0.09,0.141l13.386-13.379c-0.109-0.109-0.226-0.21-0.336-0.308l63.898-66.453
		c-3.578-7.161-1.926-16.637,4.672-23.234c8.05-8.043,20.398-8.734,27.582-1.555c7.188,7.184,6.496,19.524-1.554,27.566
		c-6.598,6.598-16.078,8.25-23.246,4.676l-39.285,37.726L10.573,505.31l0.226-0.011l-0.168,0.16
		c0.133-0.055,0.278-0.114,0.418-0.172l0.203-0.012l-4.45,4.45c3.305,3.297,8.977,2.973,12.672-0.715
		c2.328-2.324,3.309-5.418,2.914-8.222c23.414-8.946,64.766-22.742,107.206-27.32c11.622-26.446,30.625-60.176,59.656-92.546
		c3.387-3.75,6.809-7.504,10.493-11.215c-0.008-0.004-0.016-0.011-0.028-0.019c0.039-0.039,0.07-0.078,0.11-0.118
		C196.959,367.866,194.486,366.006,192.725,364.666z" style="fill: rgb(0, 0, 0);"></path>
	<path class="st0" d="M499.418,13.324l-0.824-0.828C490.211,4.324,479.082,0,466.411,0c-7.016,0-14.629,1.313-22.637,3.886
		c-20.863,6.715-46.066,22.566-74.922,47.11c-19.965,16.98-39.171,36.082-57.062,56.746c-3.426,3.882-149.186,174.495-154.8,180.846
		c-9.906,10.512,0.066,23.726,3.344,28.066c4.043,5.344,9.809,11.836,16.246,18.266c6.434,6.426,12.926,12.191,18.281,16.238
		c3.535,2.66,10.125,7.629,17.508,7.625c3.988,0.004,7.542-1.434,10.469-4.183c4.972-4.391,181.264-154.554,181.264-154.554
		c20.695-17.898,39.813-37.094,56.809-57.05c24.558-28.832,40.418-54.019,47.14-74.87C517.258,39.566,508.438,22.558,499.418,13.324
		z M258.732,282.889l-48.117,42.324c-2.906-2.359-7.238-6.121-12.718-11.598c-5.469-5.461-9.234-9.793-11.598-12.702l42.406-48.047
		l28.129,28.114L258.732,282.889z" style="fill: rgb(0, 0, 0);"></path>
</g>
</svg>
