<!--?xml version="1.0" encoding="utf-8"?-->
<!-- Generator: Adobe Illustrator 18.0.0, SVG Export Plug-In . SVG Version: 6.00 Build 0)  -->

<svg version="1.1" id="_x31_0" xmlns="http://www.w3.org/2000/svg" xmlns:xlink="http://www.w3.org/1999/xlink" x="0px" y="0px" viewBox="0 0 512 512" style="width: 128px; height: 128px; opacity: 1;" xml:space="preserve">
<style type="text/css">
	.st0{fill:#374149;}
</style>
<g>
	<path class="st0" d="M476.469,35.606C446.024,5.16,410.141-8.316,396.325,5.504L258.429,143.395L43.182,358.643L0.205,505.683
		c-0.95,3.246,1.539,6.106,4.645,6.207c0.038,0,0.078,0.027,0.117,0.027c0.074,0,0.149-0.027,0.222-0.031
		c0.406-0.016,0.786,0.105,1.203-0.016l147.04-42.977L368.68,253.646L506.571,115.75C520.392,101.934,506.915,66.051,476.469,35.606
		z M135.678,385.206l-8.809-8.809L437.172,66.09l8.809,8.813L135.678,385.206z M193.206,237.99l79.911-79.91L394.008,37.184
		c0.012,0.031,0.023,0.058,0.031,0.086l-131.75,131.755L193.206,237.99z M101.33,370.366c8.34,8.336,9.106,21.875,3.078,34.062
		c-0.918,1.813-1.973,3.594-3.196,5.317c-0.042,0.066-0.074,0.133-0.121,0.199c-1.363,1.898-2.914,3.734-4.648,5.469
		c0.129-0.125,0.281-0.211,0.41-0.332c-0.293,0.309-0.515,0.656-0.82,0.961c5.262-5.262,11.418-8.886,17.649-10.781
		c0.027-0.008,0.054-0.02,0.082-0.028c1.969-0.594,3.942-0.992,5.898-1.234c0.215-0.027,0.43-0.05,0.645-0.07
		c8.141-0.859,15.906,1.321,21.402,6.817c9.75,9.75,9.16,26.61-0.547,40.098l-65.906,19.266l-33.29-33.29l19.266-65.906
		C74.721,361.206,91.58,360.616,101.33,370.366z M226.292,366.546l248.51-248.51l0.058,0.058L353.996,238.958l-83.665,83.665
		L226.292,366.546z" style="fill: rgb(0, 0, 0);"></path>
</g>
</svg>
