<!--?xml version="1.0" encoding="utf-8"?-->
<!-- Generator: Adobe Illustrator 18.0.0, SVG Export Plug-In . SVG Version: 6.00 Build 0)  -->

<svg version="1.1" id="_x31_0" xmlns="http://www.w3.org/2000/svg" xmlns:xlink="http://www.w3.org/1999/xlink" x="0px" y="0px" viewBox="0 0 512 512" style="width: 128px; height: 128px; opacity: 1;" xml:space="preserve">
<style type="text/css">
	.st0{fill:#374149;}
</style>
<g>
	<path class="st0" d="M498.284,433.18l-90.193-90.322l-17.232-17.279l-0.008,0.012l-0.058-0.055
		c-0.625,0.926-1.301,1.813-1.938,2.731c-3.086,4.454-6.321,8.782-9.685,12.994c-1.57,1.961-3.172,3.898-4.801,5.813
		c-3.325,3.906-6.778,7.692-10.345,11.368c-1.758,1.813-3.54,3.598-5.352,5.352c-4.051,3.911-8.216,7.704-12.549,11.326
		c-1.175,0.989-2.347,1.969-3.539,2.934c-5.524,4.438-11.204,8.708-17.154,12.674l0.007,0.008c-0.019,0.015-0.042,0.031-0.062,0.046
		l107.562,107.722c9.005,9.017,20.858,13.49,32.64,13.498c11.857,0.008,23.639-4.45,32.655-13.45
		C516.34,480.47,516.364,451.291,498.284,433.18z" style="fill: rgb(0, 0, 0);"></path>
	<path class="st0" d="M385.163,192.636c0.016-25.99-5.145-50.766-14.462-73.394c-0.046-0.114-0.09-0.23-0.137-0.344
		c-1.117-2.695-2.301-5.356-3.535-7.989c-0.094-0.199-0.18-0.402-0.274-0.602c-1.293-2.734-2.653-5.43-4.066-8.09
		c-0.039-0.074-0.074-0.145-0.11-0.219C330.212,41.356,266.35,0.054,192.808,0C86.496-0.078,0.25,86.04,0.172,192.355
		C0.097,298.666,86.216,384.913,192.527,384.987C298.838,385.066,385.084,298.948,385.163,192.636z M337.037,192.601
		c-0.058,79.602-64.87,144.323-144.475,144.265c-79.606-0.058-144.323-64.874-144.265-144.475
		c0.059-79.606,64.87-144.323,144.475-144.265C272.378,48.185,337.096,112.992,337.037,192.601z" style="fill: rgb(0, 0, 0);"></path>
	<path class="st0" d="M275.57,160.469l-44.906-0.031c-3.254-0.004-5.888-2.641-5.884-5.891l0.031-44.91
		c0.004-7.38-5.977-13.369-13.361-13.377l-37.425-0.023c-7.384-0.008-13.377,5.974-13.381,13.353l-0.031,44.911
		c-0.004,3.25-2.641,5.883-5.895,5.883l-52.384-0.039c-3.254,0-5.891,2.637-5.895,5.887L96.4,218.615
		c0,3.254,2.634,5.891,5.888,5.895l52.384,0.039c3.254,0,5.887,2.637,5.887,5.895l-0.035,44.903
		c-0.004,7.383,5.977,13.376,13.361,13.38l37.426,0.027c7.383,0.008,13.376-5.977,13.38-13.361l0.031-44.902
		c0.004-3.258,2.641-5.891,5.895-5.888l44.906,0.031c7.384,0.008,13.373-5.973,13.377-13.357l0.027-37.429
		C288.935,166.466,282.953,160.477,275.57,160.469z" style="fill: rgb(0, 0, 0);"></path>
</g>
</svg>
